<svg width="800" height="400" viewBox="0 0 800 400" xmlns="http://www.w3.org/2000/svg">
  <g fill="currentColor" opacity="0.5">
    <!-- Simplified world map outline -->
    <path d="M130,120 Q180,100 200,140 Q220,160 250,150 Q270,140 290,160 Q310,180 340,170 Q360,160 380,180 Q400,200 430,190 Q450,180 470,200 Q490,220 520,210 Q540,200 560,220 Q580,240 610,230 Q630,220 650,240 Q670,260 700,250" stroke="currentColor" stroke-width="2" fill="none"/>
    
    <!-- North America -->
    <path d="M50,80 Q80,60 110,70 Q140,80 160,60 Q180,40 210,50 Q240,60 260,40 L270,80 Q250,100 220,90 Q190,80 170,100 Q150,120 120,110 Q90,100 70,120 L50,80 Z" />
    
    <!-- South America -->
    <path d="M180,200 Q200,180 230,190 Q260,200 280,180 L300,220 Q280,240 250,230 Q220,220 200,240 L180,200 Z" />
    
    <!-- Europe -->
    <path d="M350,70 Q380,50 410,60 Q440,70 460,50 L480,90 Q460,110 430,100 Q400,90 380,110 L350,70 Z" />
    
    <!-- Africa -->
    <path d="M380,150 Q410,130 440,140 Q470,150 490,130 L510,170 Q490,190 460,180 Q430,170 410,190 L380,150 Z" />
    
    <!-- Asia -->
    <path d="M500,60 Q530,40 560,50 Q590,60 610,40 Q630,20 660,30 Q690,40 710,20 L730,60 Q710,80 680,70 Q650,60 630,80 Q610,100 580,90 Q550,80 530,100 L500,60 Z" />
    
    <!-- Australia -->
    <path d="M650,220 Q680,200 710,210 Q740,220 760,200 L780,240 Q760,260 730,250 Q700,240 680,260 L650,220 Z" />
    
    <!-- Small islands -->
    <circle cx="550" cy="150" r="5" />
    <circle cx="570" cy="160" r="3" />
    <circle cx="590" cy="155" r="4" />
    <circle cx="250" cy="220" r="5" />
    <circle cx="270" cy="230" r="3" />
  </g>
</svg> 